<?xml version="1.0" encoding="iso-8859-1"?>
<!-- Generator: Adobe Illustrator 19.0.0, SVG Export Plug-In . SVG Version: 6.00 Build 0)  -->
<svg version="1.1" id="Layer_1" xmlns="http://www.w3.org/2000/svg" xmlns:xlink="http://www.w3.org/1999/xlink" x="0px" y="0px"
	 viewBox="0 0 508 508" style="enable-background:new 0 0 508 508;" xml:space="preserve">
<path style="fill:#56ACE0;" d="M434.3,119.9c0-7.8-6.3-14.1-14.1-14.1H87.8c-7.8,0-14.1,6.3-14.1,14.1v23.2h360.7v-23.2H434.3z"/>
<path style="fill:#FFFFFF;" d="M385.6,479.8c7.8,0,14.1-6.3,14.1-14.1V171.4H108.3v294.3c0,7.8,6.3,14.1,14.1,14.1H385.6z"/>
<rect x="136.5" y="199.6" style="fill:#FFC10D;" width="235" height="251.9"/>
<g>
	<path style="fill:#194F82;" d="M420.2,77.6h-69.3V42.3c0-23.3-19-42.3-42.3-42.3H199.4c-23.3,0-42.3,19-42.3,42.3v35.3H87.8
		c-23.3,0-42.3,19-42.3,42.3v37.4c0,7.8,6.3,14.1,14.1,14.1H80v294.3C80,489,99,508,122.3,508h263.3c23.3,0,42.3-19,42.3-42.3V171.4
		h20.5c7.8,0,14.1-6.3,14.1-14.1v-37.4C462.5,96.6,443.6,77.6,420.2,77.6z M185.3,42.3c0-7.8,6.3-14.1,14.1-14.1h109.2
		c7.8,0,14.1,6.3,14.1,14.1v35.3H185.3V42.3z M399.7,465.7c0,7.8-6.3,14.1-14.1,14.1H122.4c-7.8,0-14.1-6.3-14.1-14.1V171.4h291.5
		v294.3H399.7z M434.3,143.2H73.7V120c0-7.8,6.3-14.1,14.1-14.1h332.4c7.8,0,14.1,6.3,14.1,14.1V143.2z"/>
	<path style="fill:#194F82;" d="M180.3,433.9c7.8,0,14.1-6.3,14.1-14.1V231.4c0-7.8-6.3-14.1-14.1-14.1s-14.1,6.3-14.1,14.1v188.5
		C166.2,427.6,172.5,433.9,180.3,433.9z"/>
	<path style="fill:#194F82;" d="M254,433.9c7.8,0,14.1-6.3,14.1-14.1V231.4c0-7.8-6.3-14.1-14.1-14.1s-14.1,6.3-14.1,14.1v188.5
		C239.9,427.6,246.2,433.9,254,433.9z"/>
	<path style="fill:#194F82;" d="M327.7,433.9c7.8,0,14.1-6.3,14.1-14.1V231.4c0-7.8-6.3-14.1-14.1-14.1s-14.1,6.3-14.1,14.1v188.5
		C313.6,427.6,319.9,433.9,327.7,433.9z"/>
</g>
<g>
</g>
<g>
</g>
<g>
</g>
<g>
</g>
<g>
</g>
<g>
</g>
<g>
</g>
<g>
</g>
<g>
</g>
<g>
</g>
<g>
</g>
<g>
</g>
<g>
</g>
<g>
</g>
<g>
</g>
</svg>
