<svg xmlns="http://www.w3.org/2000/svg" viewBox="0 0 512 512" style="enable-background:new 0 0 512 512" xml:space="preserve"><path style="fill:#64c37d" d="M239.537 396.57a23.929 23.929 0 0 0 1.713 1.547c.262.216.546.408.818.613.334.251.664.512 1.008.743.327.22.673.413 1.013.616.312.186.619.383.937.554.346.185.704.343 1.06.51.335.158.666.326 1.004.467.343.141.697.258 1.049.383.366.132.731.273 1.102.385.348.105.704.183 1.06.273.382.096.763.205 1.15.281.403.079.816.129 1.227.188.341.048.68.113 1.022.147.756.074 1.52.116 2.296.116s1.539-.042 2.295-.116c.349-.034.692-.099 1.041-.15.403-.059.811-.105 1.207-.185.396-.078.787-.188 1.178-.287.344-.087.692-.163 1.03-.265.382-.115.754-.261 1.131-.396.341-.123.687-.234 1.019-.372.349-.144.686-.316 1.029-.478.348-.163.7-.318 1.036-.498.324-.174.636-.374.954-.563.334-.2.676-.393 1.001-.608.343-.23.672-.489 1.004-.739.275-.206.559-.399.825-.618.56-.461 1.103-.951 1.629-1.472.025-.025.051-.045.076-.068L381.06 287.975c9.087-9.089 9.089-23.823 0-32.912-9.087-9.089-23.823-9.087-32.912-.002l-68.881 68.876V38.788c0-12.853-10.42-23.273-23.273-23.273s-23.273 10.42-23.273 23.273v285.145l-68.875-68.875c-9.087-9.089-23.824-9.089-32.912 0-9.089 9.087-9.089 23.824 0 32.912l108.603 108.6z"/><path style="fill:#a9a8ae" d="M488.727 248.242c-12.853 0-23.273 10.42-23.273 23.273v178.424H46.545V271.515c0-12.853-10.42-23.273-23.273-23.273S0 258.662 0 271.515v201.697c0 12.853 10.42 23.273 23.273 23.273h465.455c12.853 0 23.273-10.42 23.273-23.273V271.515c-.001-12.853-10.421-23.273-23.274-23.273z"/></svg>