<svg xmlns="http://www.w3.org/2000/svg" viewBox="0 0 512 512" style="enable-background:new 0 0 512 512" xml:space="preserve"><path style="fill:#ff754f" d="M503.83 332.255h-32.681l-32.681 65.362 65.362-32.681z"/><path style="fill:#ff9269" d="m433.021 332.255-32.681 65.362h70.809v-65.362z"/><path style="fill:#ffb082" d="m471.149 364.936-21.787 49.021 21.787 49.021h16.34c8.987 0 16.34-7.353 16.34-16.34v-81.702h-32.68z"/><path style="fill:#ffcd9c" d="M433.021 364.936v-32.681h-70.809v114.383c0 8.987 7.353 16.34 16.34 16.34h92.596v-98.043h-38.127z"/><path style="fill:#ff754f" d="M149.787 332.255h-32.681l-32.68 65.362 65.361-32.681z"/><path style="fill:#ff9269" d="m78.979 332.255-32.681 65.362h70.808v-65.362z"/><path style="fill:#ffb082" d="m117.106 364.936-21.787 49.021 21.787 49.021h16.34c8.987 0 16.34-7.353 16.34-16.34v-81.702h-32.68z"/><path style="fill:#ffcd9c" d="M78.979 364.936v-32.681H8.17v114.383c0 8.987 7.353 16.34 16.34 16.34h92.596v-98.043H78.979z"/><path style="fill:#ff754f" d="M326.809 49.021h-32.681l-32.681 65.362 65.362-32.681z"/><path style="fill:#ff9269" d="m256 49.021-32.681 65.362h70.809V49.021z"/><path style="fill:#ffb082" d="m294.128 81.702-21.787 49.021 21.787 49.021h16.34c8.987 0 16.34-7.353 16.34-16.34V81.702h-32.68z"/><path style="fill:#ffcd9c" d="M256 81.702V49.021h-70.809v114.383c0 8.987 7.353 16.34 16.34 16.34h92.596V81.702H256z"/><path style="fill:#ff754f" d="M326.809 332.255h-32.681l-32.681 65.362 65.362-32.681z"/><path style="fill:#ff9269" d="m256 332.255-32.681 65.362h70.809v-65.362z"/><path style="fill:#ffb082" d="m294.128 364.936-21.787 49.021 21.787 49.021h16.34c8.987 0 16.34-7.353 16.34-16.34v-81.702h-32.68z"/><path style="fill:#ffcd9c" d="M256 364.936v-32.681h-70.809v114.383c0 8.987 7.353 16.34 16.34 16.34h92.596v-98.043H256z"/><path d="M503.83 324.085h-38.128c-4.512 0-8.17 3.657-8.17 8.17s3.658 8.17 8.17 8.17h29.957v16.34h-54.468v-24.511a8.17 8.17 0 0 0-8.17-8.17h-70.809a8.17 8.17 0 0 0-8.17 8.17v114.383c0 13.515 10.995 24.511 24.511 24.511h108.936c13.516 0 24.511-10.996 24.511-24.511V332.255a8.17 8.17 0 0 0-8.17-8.17zm-8.17 122.553c0 4.506-3.665 8.17-8.17 8.17H378.553c-4.506 0-8.17-3.665-8.17-8.17V340.426h54.468v24.511a8.17 8.17 0 0 0 8.17 8.17h62.638v73.531zM326.809 324.085h-38.128c-4.512 0-8.17 3.657-8.17 8.17s3.658 8.17 8.17 8.17h29.957v16.34H264.17v-24.511a8.17 8.17 0 0 0-8.17-8.17h-70.809a8.17 8.17 0 0 0-8.17 8.17v114.383c0 13.515 10.995 24.511 24.511 24.511h108.936c13.516 0 24.511-10.996 24.511-24.511V332.255a8.17 8.17 0 0 0-8.17-8.17zm-8.171 122.553c0 4.506-3.665 8.17-8.17 8.17H201.532c-4.506 0-8.17-3.665-8.17-8.17V340.426h54.468v24.511a8.17 8.17 0 0 0 8.17 8.17h62.638v73.531zM149.787 324.085H111.66c-4.512 0-8.17 3.657-8.17 8.17s3.658 8.17 8.17 8.17h29.957v16.34H87.149v-24.511a8.17 8.17 0 0 0-8.17-8.17H8.17a8.17 8.17 0 0 0-8.17 8.17v114.383c0 13.515 10.995 24.511 24.511 24.511h108.936c13.516 0 24.511-10.996 24.511-24.511V332.255a8.171 8.171 0 0 0-8.171-8.17zm-8.17 122.553c0 4.506-3.665 8.17-8.17 8.17H24.511c-4.506 0-8.17-3.665-8.17-8.17V340.426h54.468v24.511a8.17 8.17 0 0 0 8.17 8.17h62.638v73.531zM256 236.936a8.17 8.17 0 0 0-8.17 8.17v34.743l-7.84-7.84a8.17 8.17 0 0 0-11.554 11.555l21.787 21.787c.218.211.404.381.599.541.095.077.194.145.291.217.117.087.231.178.352.258.114.076.234.143.352.214.111.066.22.136.334.198.12.064.243.119.366.176.119.057.236.115.358.167.12.049.242.089.363.133.131.047.259.097.392.137.121.036.243.063.365.094.136.035.271.073.411.1.141.028.283.045.425.065.122.017.241.04.364.052a8.348 8.348 0 0 0 1.612 0c.123-.012.242-.035.364-.052.143-.021.285-.037.426-.065.139-.027.273-.065.41-.1.122-.031.244-.058.365-.094.133-.04.261-.09.392-.137.121-.044.243-.084.363-.133.122-.051.24-.11.358-.167.122-.058.245-.112.366-.176.114-.061.222-.131.333-.197.118-.071.237-.137.353-.215.121-.081.234-.17.35-.257.097-.073.197-.141.292-.218.195-.16.381-.329.56-.507.038-.035 21.825-21.822 21.825-21.822a8.17 8.17 0 0 0-11.554-11.555l-7.84 7.84v-34.743a8.17 8.17 0 0 0-8.17-8.169zM367.66 122.553c4.512 0 8.17-3.657 8.17-8.17s-3.658-8.17-8.17-8.17h-32.681V49.021a8.17 8.17 0 0 0-8.17-8.17h-38.128c-4.512 0-8.17 3.657-8.17 8.17s3.658 8.17 8.17 8.17h29.957v16.34H264.17v-24.51a8.17 8.17 0 0 0-8.17-8.17h-70.809a8.17 8.17 0 0 0-8.17 8.17v57.191H144.34c-4.512 0-8.17 3.657-8.17 8.17s3.658 8.17 8.17 8.17h32.681v40.851c0 13.515 10.995 24.511 24.511 24.511h46.298v24.511c0 4.513 3.658 8.17 8.17 8.17s8.17-3.657 8.17-8.17v-24.511h46.298c13.516 0 24.511-10.996 24.511-24.511v-40.851h32.681zm-49.022 40.851c0 4.506-3.665 8.17-8.17 8.17H201.532c-4.506 0-8.17-3.665-8.17-8.17V57.191h54.468v24.511a8.17 8.17 0 0 0 8.17 8.17h62.638v73.532zM400.34 122.553h24.511v24.511a8.17 8.17 0 0 0 8.17 8.17 8.17 8.17 0 0 0 8.17-8.17v-32.681a8.17 8.17 0 0 0-8.17-8.17H400.34c-4.512 0-8.17 3.657-8.17 8.17s3.658 8.17 8.17 8.17zM111.66 122.553H87.149v24.511a8.17 8.17 0 0 1-8.17 8.17 8.17 8.17 0 0 1-8.17-8.17v-32.681a8.17 8.17 0 0 1 8.17-8.17h32.681c4.512 0 8.17 3.657 8.17 8.17s-3.658 8.17-8.17 8.17zM441.191 245.106a8.17 8.17 0 0 0-8.17-8.17 8.17 8.17 0 0 0-8.17 8.17v34.743l-7.84-7.84a8.17 8.17 0 0 0-11.554 11.555l21.787 21.787c.218.211.404.381.599.541.095.077.194.145.291.217.117.087.231.178.352.258.114.076.234.143.352.214.111.066.22.136.334.198.12.064.243.119.366.176.119.057.236.115.358.167.12.049.242.089.363.133.131.047.259.097.392.137.121.036.243.063.365.094.136.035.271.073.411.1.141.028.283.045.425.065.122.017.241.04.364.052a8.348 8.348 0 0 0 1.612 0c.123-.012.242-.035.364-.052.143-.021.285-.037.426-.065.139-.027.273-.065.41-.1.122-.031.244-.058.365-.094.133-.04.261-.09.392-.137.121-.044.243-.084.363-.133.122-.051.24-.11.358-.167.122-.058.245-.112.366-.176.114-.061.222-.131.333-.197.118-.071.237-.137.353-.215.121-.081.234-.17.35-.257.097-.073.197-.141.292-.218.195-.16.381-.329.56-.507.038-.035 21.825-21.822 21.825-21.822a8.17 8.17 0 0 0-11.554-11.555l-7.84 7.84v-34.742zM78.979 220.596a8.17 8.17 0 0 0 8.17-8.17v-32.681a8.17 8.17 0 0 0-8.17-8.17 8.17 8.17 0 0 0-8.17 8.17v32.681a8.17 8.17 0 0 0 8.17 8.17zM433.021 220.596a8.17 8.17 0 0 0 8.17-8.17v-32.681a8.17 8.17 0 0 0-8.17-8.17 8.17 8.17 0 0 0-8.17 8.17v32.681a8.17 8.17 0 0 0 8.17 8.17zM73.202 305.352c.218.211.404.381.599.541.095.077.194.145.291.217.117.087.231.178.352.258.114.076.234.143.352.214.111.066.22.136.334.198.12.064.243.119.366.176.119.057.236.115.358.167.12.049.242.089.363.133.131.047.259.097.392.137.121.036.243.063.365.094.136.035.271.073.411.1.141.028.283.045.425.065.122.017.241.04.364.052a8.348 8.348 0 0 0 1.612 0c.123-.012.242-.035.364-.052.143-.021.285-.037.426-.065.139-.027.273-.065.41-.1.122-.031.244-.058.365-.094.133-.04.261-.09.392-.137.121-.044.243-.084.363-.133.122-.051.24-.11.358-.167.122-.058.245-.112.366-.176.114-.061.222-.131.333-.197.118-.071.237-.137.353-.215.121-.081.234-.17.35-.257.097-.073.197-.141.292-.218.195-.16.381-.329.56-.507.038-.035 21.825-21.822 21.825-21.822a8.17 8.17 0 0 0-11.554-11.555l-7.84 7.839v-34.743a8.17 8.17 0 0 0-8.17-8.17 8.17 8.17 0 0 0-8.17 8.17v34.743l-7.84-7.84a8.17 8.17 0 0 0-11.554 11.555l21.787 21.789z"/></svg>