<?xml version="1.0" encoding="iso-8859-1"?>
<!-- Generator: Adobe Illustrator 19.0.0, SVG Export Plug-In . SVG Version: 6.00 Build 0)  -->
<svg version="1.1" id="Layer_1" xmlns="http://www.w3.org/2000/svg" xmlns:xlink="http://www.w3.org/1999/xlink" x="0px" y="0px"
	 viewBox="0 0 512 512" style="enable-background:new 0 0 512 512;" xml:space="preserve">
<polygon style="fill:#FF754F;" points="503.83,332.255 471.149,332.255 438.468,397.617 503.83,364.936 "/>
<polygon style="fill:#FF9269;" points="433.021,332.255 400.34,397.617 471.149,397.617 471.149,332.255 "/>
<path style="fill:#FFB082;" d="M471.149,364.936l-21.787,49.021l21.787,49.021h16.34c8.987,0,16.34-7.353,16.34-16.34v-81.702
	H471.149z"/>
<path style="fill:#FFCD9C;" d="M433.021,364.936v-32.681h-70.809v114.383c0,8.987,7.353,16.34,16.34,16.34h92.596v-98.043H433.021z"
	/>
<polygon style="fill:#FF754F;" points="149.787,332.255 117.106,332.255 84.426,397.617 149.787,364.936 "/>
<polygon style="fill:#FF9269;" points="78.979,332.255 46.298,397.617 117.106,397.617 117.106,332.255 "/>
<path style="fill:#FFB082;" d="M117.106,364.936l-21.787,49.021l21.787,49.021h16.34c8.987,0,16.34-7.353,16.34-16.34v-81.702
	H117.106z"/>
<path style="fill:#FFCD9C;" d="M78.979,364.936v-32.681H8.17v114.383c0,8.987,7.353,16.34,16.34,16.34h92.596v-98.043H78.979z"/>
<polygon style="fill:#FF754F;" points="326.809,49.021 294.128,49.021 261.447,114.383 326.809,81.702 "/>
<polygon style="fill:#FF9269;" points="256,49.021 223.319,114.383 294.128,114.383 294.128,49.021 "/>
<path style="fill:#FFB082;" d="M294.128,81.702l-21.787,49.021l21.787,49.021h16.34c8.987,0,16.34-7.353,16.34-16.34V81.702H294.128
	z"/>
<path style="fill:#FFCD9C;" d="M256,81.702V49.021h-70.809v114.383c0,8.987,7.353,16.34,16.34,16.34h92.596V81.702H256z"/>
<polygon style="fill:#FF754F;" points="326.809,332.255 294.128,332.255 261.447,397.617 326.809,364.936 "/>
<polygon style="fill:#FF9269;" points="256,332.255 223.319,397.617 294.128,397.617 294.128,332.255 "/>
<path style="fill:#FFB082;" d="M294.128,364.936l-21.787,49.021l21.787,49.021h16.34c8.987,0,16.34-7.353,16.34-16.34v-81.702
	H294.128z"/>
<path style="fill:#FFCD9C;" d="M256,364.936v-32.681h-70.809v114.383c0,8.987,7.353,16.34,16.34,16.34h92.596v-98.043H256z"/>
<path d="M503.83,324.085h-38.128c-4.512,0-8.17,3.657-8.17,8.17s3.658,8.17,8.17,8.17h29.957v16.34h-54.468v-24.511
	c0-4.513-3.658-8.17-8.17-8.17h-70.809c-4.512,0-8.17,3.657-8.17,8.17v114.383c0,13.515,10.995,24.511,24.511,24.511h108.936
	c13.516,0,24.511-10.996,24.511-24.511V332.255C512,327.742,508.342,324.085,503.83,324.085z M495.66,446.638
	c0,4.506-3.665,8.17-8.17,8.17H378.553c-4.506,0-8.17-3.665-8.17-8.17V340.426h54.468v24.511c0,4.513,3.658,8.17,8.17,8.17h62.638
	V446.638z"/>
<path d="M326.809,324.085h-38.128c-4.512,0-8.17,3.657-8.17,8.17s3.658,8.17,8.17,8.17h29.957v16.34H264.17v-24.511
	c0-4.513-3.658-8.17-8.17-8.17h-70.809c-4.512,0-8.17,3.657-8.17,8.17v114.383c0,13.515,10.995,24.511,24.511,24.511h108.936
	c13.516,0,24.511-10.996,24.511-24.511V332.255C334.979,327.742,331.321,324.085,326.809,324.085z M318.638,446.638
	c0,4.506-3.665,8.17-8.17,8.17H201.532c-4.506,0-8.17-3.665-8.17-8.17V340.426h54.468v24.511c0,4.513,3.658,8.17,8.17,8.17h62.638
	V446.638z"/>
<path d="M149.787,324.085H111.66c-4.512,0-8.17,3.657-8.17,8.17s3.658,8.17,8.17,8.17h29.957v16.34H87.149v-24.511
	c0-4.513-3.658-8.17-8.17-8.17H8.17c-4.512,0-8.17,3.657-8.17,8.17v114.383c0,13.515,10.995,24.511,24.511,24.511h108.936
	c13.516,0,24.511-10.996,24.511-24.511V332.255C157.957,327.742,154.299,324.085,149.787,324.085z M141.617,446.638
	c0,4.506-3.665,8.17-8.17,8.17H24.511c-4.506,0-8.17-3.665-8.17-8.17V340.426h54.468v24.511c0,4.513,3.658,8.17,8.17,8.17h62.638
	V446.638z"/>
<path d="M256,236.936c-4.512,0-8.17,3.657-8.17,8.17v34.743l-7.84-7.84c-3.191-3.19-8.364-3.19-11.554,0
	c-3.191,3.192-3.191,8.364,0,11.555l21.787,21.787c0.218,0.211,0.404,0.381,0.599,0.541c0.095,0.077,0.194,0.145,0.291,0.217
	c0.117,0.087,0.231,0.178,0.352,0.258c0.114,0.076,0.234,0.143,0.352,0.214c0.111,0.066,0.22,0.136,0.334,0.198
	c0.12,0.064,0.243,0.119,0.366,0.176c0.119,0.057,0.236,0.115,0.358,0.167c0.12,0.049,0.242,0.089,0.363,0.133
	c0.131,0.047,0.259,0.097,0.392,0.137c0.121,0.036,0.243,0.063,0.365,0.094c0.136,0.035,0.271,0.073,0.411,0.1
	c0.141,0.028,0.283,0.045,0.425,0.065c0.122,0.017,0.241,0.04,0.364,0.052c0.268,0.026,0.537,0.04,0.806,0.04
	s0.538-0.014,0.806-0.04c0.123-0.012,0.242-0.035,0.364-0.052c0.143-0.021,0.285-0.037,0.426-0.065
	c0.139-0.027,0.273-0.065,0.41-0.1c0.122-0.031,0.244-0.058,0.365-0.094c0.133-0.04,0.261-0.09,0.392-0.137
	c0.121-0.044,0.243-0.084,0.363-0.133c0.122-0.051,0.24-0.11,0.358-0.167c0.122-0.058,0.245-0.112,0.366-0.176
	c0.114-0.061,0.222-0.131,0.333-0.197c0.118-0.071,0.237-0.137,0.353-0.215c0.121-0.081,0.234-0.17,0.35-0.257
	c0.097-0.073,0.197-0.141,0.292-0.218c0.195-0.16,0.381-0.329,0.56-0.507c0.038-0.035,21.825-21.822,21.825-21.822
	c3.191-3.192,3.191-8.364,0-11.555c-3.191-3.19-8.364-3.19-11.554,0l-7.84,7.84v-34.743C264.17,240.593,260.512,236.936,256,236.936
	z"/>
<path d="M367.66,122.553c4.512,0,8.17-3.657,8.17-8.17s-3.658-8.17-8.17-8.17h-32.681V49.021c0-4.513-3.658-8.17-8.17-8.17h-38.128
	c-4.512,0-8.17,3.657-8.17,8.17s3.658,8.17,8.17,8.17h29.957v16.34H264.17V49.021c0-4.513-3.658-8.17-8.17-8.17h-70.809
	c-4.512,0-8.17,3.657-8.17,8.17v57.191H144.34c-4.512,0-8.17,3.657-8.17,8.17s3.658,8.17,8.17,8.17h32.681v40.851
	c0,13.515,10.995,24.511,24.511,24.511h46.298v24.511c0,4.513,3.658,8.17,8.17,8.17s8.17-3.657,8.17-8.17v-24.511h46.298
	c13.516,0,24.511-10.996,24.511-24.511v-40.851H367.66z M318.638,163.404c0,4.506-3.665,8.17-8.17,8.17H201.532
	c-4.506,0-8.17-3.665-8.17-8.17V57.191h54.468v24.511c0,4.513,3.658,8.17,8.17,8.17h62.638V163.404z"/>
<path d="M400.34,122.553h24.511v24.511c0,4.513,3.658,8.17,8.17,8.17c4.512,0,8.17-3.657,8.17-8.17v-32.681
	c0-4.513-3.658-8.17-8.17-8.17H400.34c-4.512,0-8.17,3.657-8.17,8.17S395.828,122.553,400.34,122.553z"/>
<path d="M111.66,122.553H87.149v24.511c0,4.513-3.658,8.17-8.17,8.17c-4.512,0-8.17-3.657-8.17-8.17v-32.681
	c0-4.513,3.658-8.17,8.17-8.17h32.681c4.512,0,8.17,3.657,8.17,8.17S116.172,122.553,111.66,122.553z"/>
<path d="M441.191,245.106c0-4.513-3.658-8.17-8.17-8.17c-4.512,0-8.17,3.657-8.17,8.17v34.743l-7.84-7.84
	c-3.191-3.19-8.364-3.19-11.554,0c-3.191,3.192-3.191,8.364,0,11.555l21.787,21.787c0.218,0.211,0.404,0.381,0.599,0.541
	c0.095,0.077,0.194,0.145,0.291,0.217c0.117,0.087,0.231,0.178,0.352,0.258c0.114,0.076,0.234,0.143,0.352,0.214
	c0.111,0.066,0.22,0.136,0.334,0.198c0.12,0.064,0.243,0.119,0.366,0.176c0.119,0.057,0.236,0.115,0.358,0.167
	c0.12,0.049,0.242,0.089,0.363,0.133c0.131,0.047,0.259,0.097,0.392,0.137c0.121,0.036,0.243,0.063,0.365,0.094
	c0.136,0.035,0.271,0.073,0.411,0.1c0.141,0.028,0.283,0.045,0.425,0.065c0.122,0.017,0.241,0.04,0.364,0.052
	c0.268,0.026,0.537,0.04,0.806,0.04s0.538-0.014,0.806-0.04c0.123-0.012,0.242-0.035,0.364-0.052
	c0.143-0.021,0.285-0.037,0.426-0.065c0.139-0.027,0.273-0.065,0.41-0.1c0.122-0.031,0.244-0.058,0.365-0.094
	c0.133-0.04,0.261-0.09,0.392-0.137c0.121-0.044,0.243-0.084,0.363-0.133c0.122-0.051,0.24-0.11,0.358-0.167
	c0.122-0.058,0.245-0.112,0.366-0.176c0.114-0.061,0.222-0.131,0.333-0.197c0.118-0.071,0.237-0.137,0.353-0.215
	c0.121-0.081,0.234-0.17,0.35-0.257c0.097-0.073,0.197-0.141,0.292-0.218c0.195-0.16,0.381-0.329,0.56-0.507
	c0.038-0.035,21.825-21.822,21.825-21.822c3.191-3.192,3.191-8.364,0-11.555c-3.191-3.19-8.364-3.19-11.554,0l-7.84,7.84V245.106z"
	/>
<path d="M78.979,220.596c4.512,0,8.17-3.657,8.17-8.17v-32.681c0-4.513-3.658-8.17-8.17-8.17c-4.512,0-8.17,3.657-8.17,8.17v32.681
	C70.809,216.939,74.467,220.596,78.979,220.596z"/>
<path d="M433.021,220.596c4.512,0,8.17-3.657,8.17-8.17v-32.681c0-4.513-3.658-8.17-8.17-8.17c-4.512,0-8.17,3.657-8.17,8.17v32.681
	C424.851,216.939,428.509,220.596,433.021,220.596z"/>
<path d="M73.202,305.352c0.218,0.211,0.404,0.381,0.599,0.541c0.095,0.077,0.194,0.145,0.291,0.217
	c0.117,0.087,0.231,0.178,0.352,0.258c0.114,0.076,0.234,0.143,0.352,0.214c0.111,0.066,0.22,0.136,0.334,0.198
	c0.12,0.064,0.243,0.119,0.366,0.176c0.119,0.057,0.236,0.115,0.358,0.167c0.12,0.049,0.242,0.089,0.363,0.133
	c0.131,0.047,0.259,0.097,0.392,0.137c0.121,0.036,0.243,0.063,0.365,0.094c0.136,0.035,0.271,0.073,0.411,0.1
	c0.141,0.028,0.283,0.045,0.425,0.065c0.122,0.017,0.241,0.04,0.364,0.052c0.268,0.026,0.537,0.04,0.806,0.04
	c0.269,0,0.538-0.014,0.806-0.04c0.123-0.012,0.242-0.035,0.364-0.052c0.143-0.021,0.285-0.037,0.426-0.065
	c0.139-0.027,0.273-0.065,0.41-0.1c0.122-0.031,0.244-0.058,0.365-0.094c0.133-0.04,0.261-0.09,0.392-0.137
	c0.121-0.044,0.243-0.084,0.363-0.133c0.122-0.051,0.24-0.11,0.358-0.167c0.122-0.058,0.245-0.112,0.366-0.176
	c0.114-0.061,0.222-0.131,0.333-0.197c0.118-0.071,0.237-0.137,0.353-0.215c0.121-0.081,0.234-0.17,0.35-0.257
	c0.097-0.073,0.197-0.141,0.292-0.218c0.195-0.16,0.381-0.329,0.56-0.507c0.038-0.035,21.825-21.822,21.825-21.822
	c3.191-3.192,3.191-8.364,0-11.555c-3.191-3.19-8.364-3.19-11.554,0l-7.84,7.839v-34.743c0-4.513-3.658-8.17-8.17-8.17
	c-4.512,0-8.17,3.657-8.17,8.17v34.743l-7.84-7.84c-3.191-3.19-8.364-3.19-11.554,0c-3.191,3.192-3.191,8.364,0,11.555
	L73.202,305.352z"/>
<g>
</g>
<g>
</g>
<g>
</g>
<g>
</g>
<g>
</g>
<g>
</g>
<g>
</g>
<g>
</g>
<g>
</g>
<g>
</g>
<g>
</g>
<g>
</g>
<g>
</g>
<g>
</g>
<g>
</g>
</svg>
