<svg xmlns="http://www.w3.org/2000/svg" viewBox="0 0 496 496" style="enable-background:new 0 0 496 496" xml:space="preserve"><path style="fill:#0ee0b8" d="M404 0H92C78.4 0 64 12.8 64 26.4v320L222.4 496H404c13.6 0 28-12.8 28-26.4V26.4C432 12.8 417.6 0 404 0z"/><path style="fill:#ffd400" d="M404 0H92C78.4 0 64 12.8 64 26.4v320L222.4 496H404c13.6 0 28-12.8 28-26.4V26.4C432 12.8 417.6 0 404 0z"/><path style="fill:#ffc200" d="M432 384V26.4C432 12.8 417.6 0 404 0H92C78.4 0 66.4 11.2 66.4 24"/><path style="fill:#ffb000" d="M432 384V26.4C432 12.8 417.6 0 404 0H208"/><path style="fill:#ffc200" d="M200 352v119.2c0 1.6 1.6 3.2 1.6 4.8l19.2 18.4c1.6 0 3.2 1.6 4.8 1.6h125.6l-148-144H200z"/><path style="fill:#ffb000" d="M200 351.2v120c0 1.6 1.6 3.2 1.6 4.8l19.2 18.4c1.6 0 3.2 1.6 4.8 1.6h64l-72.8-120.8-16.8-24z"/><path style="fill:#fff" d="M222.4 496h1.6V370.4c0-13.6-12-26.4-25.6-26.4L64 345.6 222.4 496z"/><path style="fill:#fff7d7" d="M64 345.6 222.4 496h1.6V368"/><path style="fill:#f9e385" d="M80 345.6V26.4C80 12.8 89.6 0 102.4 0H92C78.4 0 64 12.8 64 26.4v320l16-.8z"/><path style="fill:#ffb000" d="M156 211.2c-6.4 0-12 4.8-12 11.2v87.2c0 6.4 5.6 11.2 12 11.2s12-4.8 12-11.2v-86.4c0-6.4-5.6-12-12-12zM208 149.6c-6.4 0-8 4.8-8 11.2v148.8c0 6.4 1.6 11.2 8 11.2s8-4.8 8-11.2v-148c0-6.4-1.6-12-8-12zM260 172.8c-6.4 0-12 4.8-12 11.2v125.6c0 6.4 5.6 11.2 12 11.2s12-4.8 12-11.2V184.8c0-6.4-5.6-12-12-12zM308 249.6c-6.4 0-12 4.8-12 11.2v48.8c0 6.4 5.6 11.2 12 11.2s12-4.8 12-11.2v-48.8c0-5.6-5.6-11.2-12-11.2zM356 104c-6.4 0-12 4.8-12 11.2v194.4c0 6.4 5.6 11.2 12 11.2s12-4.8 12-11.2V115.2c0-6.4-5.6-11.2-12-11.2z"/><path style="fill:#fff" d="M148 200.8c-6.4 0-12 4.8-12 11.2v87.2c0 6.4 5.6 11.2 12 11.2s12-4.8 12-11.2v-86.4c0-6.4-5.6-12-12-12zM196 139.2c-6.4 0-12 4.8-12 11.2v148.8c0 6.4 5.6 11.2 12 11.2s12-4.8 12-11.2v-148c0-6.4-5.6-12-12-12zM252 163.2c-6.4 0-12 4.8-12 11.2v124.8c0 6.4 5.6 11.2 12 11.2s12-4.8 12-11.2v-124c0-6.4-5.6-12-12-12zM300 239.2c-6.4 0-12 4.8-12 11.2v48.8c0 6.4 5.6 11.2 12 11.2s12-4.8 12-11.2v-48.8c0-5.6-5.6-11.2-12-11.2zM348 93.6c-6.4 0-12 4.8-12 11.2v194.4c0 6.4 5.6 11.2 12 11.2s12-4.8 12-11.2V104.8c0-6.4-5.6-11.2-12-11.2z"/></svg>