<?xml version="1.0" encoding="iso-8859-1"?>
<!-- Generator: Adobe Illustrator 19.0.0, SVG Export Plug-In . SVG Version: 6.00 Build 0)  -->
<svg version="1.1" id="Layer_1" xmlns="http://www.w3.org/2000/svg" xmlns:xlink="http://www.w3.org/1999/xlink" x="0px" y="0px"
	 viewBox="0 0 496 496" style="enable-background:new 0 0 496 496;" xml:space="preserve">
<path style="fill:#0EE0B8;" d="M404,0H92C78.4,0,64,12.8,64,26.4v320L222.4,496H404c13.6,0,28-12.8,28-26.4V26.4
	C432,12.8,417.6,0,404,0z"/>
<path style="fill:#FFD400;" d="M404,0H92C78.4,0,64,12.8,64,26.4v320L222.4,496H404c13.6,0,28-12.8,28-26.4V26.4
	C432,12.8,417.6,0,404,0z"/>
<path style="fill:#FFC200;" d="M432,384V26.4C432,12.8,417.6,0,404,0H92C78.4,0,66.4,11.2,66.4,24"/>
<path style="fill:#FFB000;" d="M432,384V26.4C432,12.8,417.6,0,404,0H208"/>
<path style="fill:#FFC200;" d="M200,352v119.2c0,1.6,1.6,3.2,1.6,4.8l19.2,18.4c1.6,0,3.2,1.6,4.8,1.6h125.6l-148-144H200z"/>
<path style="fill:#FFB000;" d="M200,351.2v120c0,1.6,1.6,3.2,1.6,4.8l19.2,18.4c1.6,0,3.2,1.6,4.8,1.6h64l-72.8-120.8L200,351.2z"/>
<path style="fill:#FFFFFF;" d="M222.4,496h1.6V370.4c0-13.6-12-26.4-25.6-26.4L64,345.6L222.4,496z"/>
<polyline style="fill:#FFF7D7;" points="64,345.6 222.4,496 224,496 224,368 "/>
<path style="fill:#F9E385;" d="M80,345.6L80,345.6V26.4C80,12.8,89.6,0,102.4,0H92C78.4,0,64,12.8,64,26.4v320L80,345.6L80,345.6z"
	/>
<g>
	<path style="fill:#FFB000;" d="M156,211.2c-6.4,0-12,4.8-12,11.2v87.2c0,6.4,5.6,11.2,12,11.2s12-4.8,12-11.2v-86.4
		C168,216.8,162.4,211.2,156,211.2z"/>
	<path style="fill:#FFB000;" d="M208,149.6c-6.4,0-8,4.8-8,11.2v148.8c0,6.4,1.6,11.2,8,11.2s8-4.8,8-11.2v-148
		C216,155.2,214.4,149.6,208,149.6z"/>
	<path style="fill:#FFB000;" d="M260,172.8c-6.4,0-12,4.8-12,11.2v125.6c0,6.4,5.6,11.2,12,11.2s12-4.8,12-11.2V184.8
		C272,178.4,266.4,172.8,260,172.8z"/>
	<path style="fill:#FFB000;" d="M308,249.6c-6.4,0-12,4.8-12,11.2v48.8c0,6.4,5.6,11.2,12,11.2s12-4.8,12-11.2v-48.8
		C320,255.2,314.4,249.6,308,249.6z"/>
	<path style="fill:#FFB000;" d="M356,104c-6.4,0-12,4.8-12,11.2v194.4c0,6.4,5.6,11.2,12,11.2s12-4.8,12-11.2V115.2
		C368,108.8,362.4,104,356,104z"/>
</g>
<g>
	<path style="fill:#FFFFFF;" d="M148,200.8c-6.4,0-12,4.8-12,11.2v87.2c0,6.4,5.6,11.2,12,11.2s12-4.8,12-11.2v-86.4
		C160,206.4,154.4,200.8,148,200.8z"/>
	<path style="fill:#FFFFFF;" d="M196,139.2c-6.4,0-12,4.8-12,11.2v148.8c0,6.4,5.6,11.2,12,11.2s12-4.8,12-11.2v-148
		C208,144.8,202.4,139.2,196,139.2z"/>
	<path style="fill:#FFFFFF;" d="M252,163.2c-6.4,0-12,4.8-12,11.2v124.8c0,6.4,5.6,11.2,12,11.2s12-4.8,12-11.2v-124
		C264,168.8,258.4,163.2,252,163.2z"/>
	<path style="fill:#FFFFFF;" d="M300,239.2c-6.4,0-12,4.8-12,11.2v48.8c0,6.4,5.6,11.2,12,11.2s12-4.8,12-11.2v-48.8
		C312,244.8,306.4,239.2,300,239.2z"/>
	<path style="fill:#FFFFFF;" d="M348,93.6c-6.4,0-12,4.8-12,11.2v194.4c0,6.4,5.6,11.2,12,11.2s12-4.8,12-11.2V104.8
		C360,98.4,354.4,93.6,348,93.6z"/>
</g>
<g>
</g>
<g>
</g>
<g>
</g>
<g>
</g>
<g>
</g>
<g>
</g>
<g>
</g>
<g>
</g>
<g>
</g>
<g>
</g>
<g>
</g>
<g>
</g>
<g>
</g>
<g>
</g>
<g>
</g>
</svg>
