<?xml version="1.0" encoding="iso-8859-1"?>
<!-- Generator: Adobe Illustrator 19.0.0, SVG Export Plug-In . SVG Version: 6.00 Build 0)  -->
<svg version="1.1" id="Layer_1" xmlns="http://www.w3.org/2000/svg" xmlns:xlink="http://www.w3.org/1999/xlink" x="0px" y="0px"
	 viewBox="0 0 511.999 511.999" style="enable-background:new 0 0 511.999 511.999;" xml:space="preserve">
<path style="fill:#FEDAAB;" d="M181.262,402.624c0,0-14.884,18.156-36.101,18.156s-36.101-18.156-36.101-18.156v-22.907
	c10.451,5.489,22.59,8.551,36.101,8.551s25.652-3.061,36.101-8.551V402.624z"/>
<path style="fill:#A67C52;" d="M348.788,232.988c-32.512,32.408-61.437,32.408-61.437,32.408v-3.589c0,0-0.316-7.917,1.373-19.001
	c1.373-8.656,3.8-19.212,8.762-29.557c5.595-12.034,14.356-23.751,28.08-31.669c10.557-6.123,24.068-10.028,41.275-10.028
	c83.077,0,79.488,90.255,79.488,90.255C395.763,261.805,348.788,232.988,348.788,232.988z"/>
<g>
	<path style="fill:#FEDAAB;" d="M402.942,379.718c-10.451,5.489-22.59,8.551-36.101,8.551c-13.512,0-25.652-3.061-36.101-8.551
		c-10.767-5.595-19.845-13.723-26.813-23.646c-8.129-11.4-13.406-25.229-15.517-40.324c-11.19-1.478-22.696-12.14-22.696-21.429
		c0-9.923,9.712-14.462,21.64-14.462v-14.462c0,0,28.923,0,61.437-32.408c0,0,46.975,28.818,97.538,28.818v18.051
		c11.928,0,21.64,4.54,21.64,14.462c0,9.29-11.506,19.951-22.696,21.429C441.471,343.933,426.164,367.684,402.942,379.718z"/>
	<path style="fill:#FEDAAB;" d="M402.942,402.624c0,0-14.884,18.156-36.101,18.156s-36.101-18.156-36.101-18.156v-22.907
		c10.451,5.489,22.59,8.551,36.101,8.551c13.512,0,25.652-3.061,36.101-8.551V402.624z"/>
</g>
<g>
	<path style="fill:#4CBD91;" d="M504.069,485.701c0,0,0,8.023,0,18.051h-274.46c0-10.028,0-18.051,0-18.051
		s0.316-20.796,26.496-40.535c9.923-7.495,23.434-14.779,42.119-20.796c0,0,24.595-12.879,32.512-21.745
		c0,0,14.884,18.156,36.101,18.156c21.218,0,36.102-18.156,36.102-18.156c7.917,8.867,32.512,21.745,32.512,21.745
		C503.858,446.01,504.069,485.701,504.069,485.701z"/>
	<path style="fill:#4CBD91;" d="M256.106,445.166c-26.179,19.74-26.496,40.535-26.496,40.535s0,8.023,0,18.051H7.931
		c0-10.028,0-18.051,0-18.051s0.633-39.48,68.615-61.331c0,0,24.595-12.879,32.512-21.745c0,0,14.884,18.156,36.101,18.156
		s36.101-18.156,36.101-18.156c7.917,8.867,32.512,21.745,32.512,21.745c18.684,5.911,32.302,13.195,42.224,20.584L256.106,445.166z
		"/>
</g>
<path style="fill:#A67C52;" d="M223.17,242.805c1.794,11.084,1.478,19.001,1.478,19.001c-50.564,0-97.538-28.818-97.538-28.818
	c-32.512,32.408-61.437,32.408-61.437,32.408v-3.589c0,0-3.695-90.255,79.488-90.255c17.312,0,30.824,3.906,41.38,10.134
	c13.828,8.023,22.696,20.057,28.29,32.302C219.476,224.12,221.903,234.359,223.17,242.805z"/>
<path style="fill:#4CBD91;" d="M246.288,294.319c0-9.923-9.712-14.462-21.64-14.462v-18.051c0,0,0.316-7.917-1.478-19.001
	c5.489,5.172,17.523,14.567,32.83,14.567c15.201,0,27.235-9.29,32.724-14.567c-1.689,11.084-1.373,19.001-1.373,19.001v3.589v14.462
	c-11.928,0-21.64,4.54-21.64,14.462c0,9.29,11.506,19.951,22.696,21.429c2.112,15.095,7.389,28.923,15.517,40.324l-0.422,0.212
	h-95.005l-0.422-0.212c8.129-11.4,13.406-25.229,15.517-40.324C234.782,314.27,246.288,303.608,246.288,294.319z"/>
<g>
	<path style="fill:#FEDAAB;" d="M181.262,379.718c-10.451,5.489-22.59,8.551-36.101,8.551s-25.652-3.061-36.101-8.551
		c-23.224-12.034-38.529-35.785-42.33-63.971c-11.19-1.478-22.696-12.14-22.696-21.429c0-9.923,9.712-14.462,21.64-14.462v-14.462
		c0,0,28.923,0,61.437-32.408c0,0,46.975,28.818,97.538,28.818v18.051c11.928,0,21.64,4.54,21.64,14.462
		c0,9.29-11.506,19.951-22.696,21.429c-2.112,15.095-7.389,28.923-15.517,40.324C201.108,365.994,192.029,374.123,181.262,379.718z"
		/>
	<path style="fill:#FEDAAB;" d="M256,257.372c-15.307,0-27.34-9.395-32.83-14.567c-1.267-8.445-3.695-18.684-8.339-28.818
		l0.528-0.211c11.506,7.072,25.229,11.084,40.641,11.084c15.834,0,29.768-4.222,41.486-11.612
		c-4.962,10.345-7.389,20.902-8.762,29.557C283.235,248.083,271.201,257.372,256,257.372z"/>
	<path style="fill:#FEDAAB;" d="M335.488,116.554c11.928,0,21.64,4.434,21.64,14.462c0,9.29-11.506,19.845-22.696,21.324
		c-1.478,10.557-4.434,20.373-8.867,29.241c-13.723,7.917-22.485,19.635-28.08,31.669c-11.718,7.389-25.652,11.612-41.486,11.612
		c-15.412,0-29.135-4.011-40.641-11.084l-0.528,0.211c-5.595-12.245-14.462-24.279-28.29-32.302
		c-0.95-1.583-1.689-3.167-2.322-4.856c-3.167-7.6-5.489-15.834-6.65-24.491c-11.19-1.478-22.696-12.034-22.696-21.324
		c0-10.028,9.712-14.462,21.64-14.462v-14.462c0,0,28.923,0,61.437-32.512c0,0,46.975,28.923,97.538,28.923v18.051H335.488z"/>
</g>
<path style="fill:#A67C52;" d="M237.949,69.578c-32.512,32.512-61.437,32.512-61.437,32.512v-3.589c0,0-3.695-90.255,79.488-90.255
	c83.077,0,79.488,90.255,79.488,90.255C284.923,98.502,237.949,69.578,237.949,69.578z"/>
<path style="fill:#231F20;" d="M438.528,417.026c-8.114-4.295-21.347-12.135-27.656-17.715v-14.937
	c21.554-12.853,36.354-35.074,41.39-62.142c12.968-4.293,23.636-16.359,23.636-27.914c0-11.479-8.265-19.53-21.64-21.766v-10.608
	c0.115-3.557,0.907-46.49-26.17-74.665c-15.089-15.7-35.695-23.661-61.249-23.661c-9.834,0-18.989,1.205-27.386,3.589
	c0.746-2.727,1.401-5.506,1.94-8.346c13.879-4.474,23.666-17.354,23.666-27.847c0-11.479-8.265-19.53-21.641-21.766V98.64
	c0.115-3.566,0.904-46.491-26.169-74.663C302.161,8.278,281.554,0.316,256,0.316c-25.602,0-46.236,7.972-61.329,23.695
	c-27.035,28.164-26.21,71.038-26.089,74.634v10.605c-13.375,2.235-21.64,10.287-21.64,21.766c0,10.49,9.78,23.363,23.649,27.843
	c0.53,2.799,1.18,5.58,1.939,8.338c-8.369-2.378-17.517-3.576-27.369-3.576c-25.602,0-46.237,7.972-61.329,23.695
	c-27.037,28.166-26.21,71.043-26.089,74.635v10.604c-13.375,2.235-21.64,10.287-21.64,21.766c0,11.555,10.669,23.621,23.636,27.914
	c5.039,27.082,19.849,49.31,41.39,62.143v14.933c-6.313,5.584-19.56,13.432-27.673,17.724c-71.906,23.372-73.425,66.7-73.455,68.539
	L0,511.683h221.678h7.931h282.39v-26.024C511.989,483.808,510.927,440.199,438.528,417.026z M256.183,435.378
	c-10.934-7.325-24.134-13.487-39.333-18.353c-8.115-4.294-21.348-12.135-27.657-17.717v-14.94
	c8.725-5.214,16.34-11.98,22.713-20.156h88.19c6.392,8.195,14.007,14.957,22.711,20.156v14.939
	c-6.314,5.584-19.561,13.433-27.674,17.726C280.038,421.95,266.97,428.11,256.183,435.378z M116.989,391.717
	c8.806,2.979,18.238,4.483,28.172,4.483c9.937,0,19.37-1.505,28.171-4.48v7.787c-4.109,4.093-14.873,13.344-28.171,13.344
	c-13.35,0-24.073-9.239-28.172-13.337V391.717z M232.578,272.553v-10.618c0.012-0.382,0.031-1.319,0.014-2.688
	c6.519,3.418,14.451,6.055,23.407,6.055c9.012,0,16.975-2.715,23.404-6.093c-0.015,1.394,0.005,2.343,0.017,2.727v10.616
	c-13.375,2.235-21.641,10.287-21.641,21.766c0,11.563,10.685,23.638,23.665,27.923c1.771,9.278,4.711,18.086,8.677,26.111h-68.248
	c3.972-8.033,6.91-16.838,8.681-26.111c12.979-4.285,23.664-16.36,23.664-27.923C254.219,282.84,245.953,274.789,232.578,272.553z
	 M281.377,238.773c-4.783,4.147-14.098,10.669-25.377,10.669c-10.938,0-20.088-6.071-25.463-10.681
	c-0.607-3.515-1.345-6.947-2.216-10.287c8.674,2.863,17.926,4.317,27.68,4.317c9.71,0,18.933-1.447,27.594-4.297
	C282.742,231.77,282.011,235.201,281.377,238.773z M338.669,391.717c8.808,2.979,18.238,4.483,28.172,4.483
	c9.938,0,19.374-1.506,28.172-4.48v7.787c-4.11,4.093-14.874,13.344-28.172,13.344c-13.349,0-24.072-9.238-28.172-13.336V391.717z
	 M460.036,294.319c0,1.615-1.217,4.641-4.647,7.86c-3.288,3.085-7.458,5.219-11.156,5.706l-6.012,0.794l-0.81,6.01
	c-3.522,26.124-17.417,47.26-38.158,58.009c-9.654,5.069-20.558,7.641-32.414,7.641s-22.761-2.571-32.446-7.657
	c-9.526-4.95-17.593-12.071-24.012-21.213c-7.301-10.24-12.183-22.972-14.121-36.818l-0.835-5.974l-5.98-0.79
	c-3.698-0.489-7.869-2.621-11.156-5.706c-3.43-3.219-4.649-6.246-4.649-7.86c0-6.216,11.42-6.531,13.71-6.531h7.931V272.43
	c10.936-2.006,31.855-8.509,54.72-29.615c13.195,7.198,48.799,24.574,88.398,26.708l-0.004,18.267h7.931
	C448.616,287.787,460.036,288.102,460.036,294.319z M416.586,198.204c16.708,17.33,20.656,42.694,21.565,55.406
	c-44.512-2.795-84.794-27.125-85.215-27.383l-5.323-3.265l-4.423,4.409c-19.644,19.581-37.818,26.42-47.832,28.81
	c0.113-2.517,1.387-13.218,1.387-13.218c1.684-10.101,4.264-18.722,7.932-26.371c5.82-12.519,14.182-21.987,24.867-28.152
	c10.248-5.944,22.797-8.958,37.296-8.958C387.872,179.482,404.609,185.781,416.586,198.204z M206.179,34.928
	c11.981-12.442,28.743-18.75,49.821-18.75c21.034,0,37.771,6.299,49.748,18.722c16.707,17.33,20.656,42.693,21.564,55.405
	c-44.505-2.805-84.782-27.222-85.204-27.481l-5.335-3.284l-4.431,4.431c-19.635,19.635-37.8,26.5-47.814,28.9
	C185.069,81.323,188.285,53.51,206.179,34.928z M162.803,131.015c0-6.06,10.493-6.531,13.709-6.531h7.931v-15.364
	c10.937-2.013,31.859-8.537,54.722-29.706c13.207,7.229,48.805,24.661,88.397,26.801l-0.004,18.269h7.931
	c3.216,0,13.71,0.471,13.71,6.531c0,4.756-7.964,12.425-15.804,13.46l-5.979,0.79l-0.836,5.974
	c-1.253,8.951-3.668,17.271-7.159,24.788c-11.883,7.419-21.31,18.072-28.047,31.652c-10.48,6.136-22.367,9.25-35.373,9.25
	c-13.063,0-24.965-3.125-35.408-9.272c-6.821-13.649-16.273-24.275-28.105-31.638c-0.299-0.619-0.577-1.267-0.842-1.973
	l-0.106-0.266c-3.026-7.264-5.083-14.832-6.11-22.494l-0.807-6.014l-6.015-0.794C170.766,143.44,162.803,135.772,162.803,131.015z
	 M95.274,198.299c11.985-12.486,28.77-18.817,49.886-18.817c14.625,0,27.19,3.039,37.4,9.063
	c10.769,6.247,19.199,15.916,25.061,28.746c3.554,7.753,6.095,16.471,7.589,25.995c0,0,1.101,8.253,1.255,10.324
	c-44.509-2.797-84.787-27.125-85.209-27.383l-5.323-3.265l-4.423,4.409c-19.649,19.584-37.825,26.424-47.838,28.812
	C74.187,244.684,77.343,216.98,95.274,198.299z M74.589,314.688l-0.81-6.01l-6.012-0.794c-3.698-0.489-7.867-2.621-11.155-5.706
	c-3.43-3.219-4.648-6.245-4.648-7.86c0-6.216,11.419-6.531,13.709-6.531h7.931v-15.361c10.936-2.006,31.855-8.509,54.72-29.615
	c13.195,7.198,48.798,24.574,88.397,26.708l-0.004,18.268h7.931c2.289,0,13.709,0.315,13.709,6.531c0,1.615-1.217,4.641-4.648,7.86
	c-3.288,3.085-7.458,5.217-11.155,5.706l-5.981,0.79l-0.835,5.974c-1.937,13.846-6.82,26.578-14.154,36.866
	c-6.386,9.095-14.452,16.216-24.009,21.182c-9.652,5.069-20.558,7.641-32.414,7.641c-11.855,0-22.762-2.571-32.453-7.661
	C92.005,361.948,78.111,340.812,74.589,314.688z M15.859,485.972v-0.041c0-0.007,0-0.017,0.001-0.026L15.859,485.972z
	 M15.862,495.821v-9.962c0.123-2.196,2.969-34.607,63.111-53.939l0.648-0.208l0.604-0.315c2.151-1.126,18.034-9.54,28.549-17.839
	c7.044,6.237,19.984,15.154,36.387,15.154s29.343-8.918,36.387-15.154c10.514,8.298,26.398,16.713,28.549,17.839l0.62,0.325
	l0.667,0.21c12.071,3.82,22.678,8.477,31.665,13.892c-7.687,7.275-13.579,15.382-17.275,23.836
	c-3.879,8.872-4.084,15.225-4.094,15.921v10.241H15.862V495.821z M237.537,485.97v-0.044c0-0.007,0.001-0.017,0.001-0.027
	L237.537,485.97z M496.138,495.821H237.54v-9.963c0.077-1.363,1.462-17.864,23.346-34.364c10.363-7.828,23.743-14.414,39.769-19.574
	l0.646-0.208l0.602-0.315c2.15-1.125,18.034-9.54,28.548-17.838c7.044,6.237,19.983,15.154,36.387,15.154
	c16.403,0,29.342-8.918,36.387-15.154c10.514,8.299,26.398,16.713,28.549,17.839l0.62,0.325l0.667,0.212
	c60.739,19.215,62.997,51.945,63.075,53.872v10.016H496.138z"/>
<g>
</g>
<g>
</g>
<g>
</g>
<g>
</g>
<g>
</g>
<g>
</g>
<g>
</g>
<g>
</g>
<g>
</g>
<g>
</g>
<g>
</g>
<g>
</g>
<g>
</g>
<g>
</g>
<g>
</g>
</svg>
