<svg xmlns="http://www.w3.org/2000/svg" viewBox="0 0 511.999 511.999" style="enable-background:new 0 0 511.999 511.999" xml:space="preserve"><path style="fill:#fedaab" d="M181.262 402.624s-14.884 18.156-36.101 18.156-36.101-18.156-36.101-18.156v-22.907c10.451 5.489 22.59 8.551 36.101 8.551s25.652-3.061 36.101-8.551v22.907z"/><path style="fill:#a67c52" d="M348.788 232.988c-32.512 32.408-61.437 32.408-61.437 32.408v-3.589s-.316-7.917 1.373-19.001c1.373-8.656 3.8-19.212 8.762-29.557 5.595-12.034 14.356-23.751 28.08-31.669 10.557-6.123 24.068-10.028 41.275-10.028 83.077 0 79.488 90.255 79.488 90.255-50.566-.002-97.541-28.819-97.541-28.819z"/><path style="fill:#fedaab" d="M402.942 379.718c-10.451 5.489-22.59 8.551-36.101 8.551-13.512 0-25.652-3.061-36.101-8.551-10.767-5.595-19.845-13.723-26.813-23.646-8.129-11.4-13.406-25.229-15.517-40.324-11.19-1.478-22.696-12.14-22.696-21.429 0-9.923 9.712-14.462 21.64-14.462v-14.462s28.923 0 61.437-32.408c0 0 46.975 28.818 97.538 28.818v18.051c11.928 0 21.64 4.54 21.64 14.462 0 9.29-11.506 19.951-22.696 21.429-3.802 28.186-19.109 51.937-42.331 63.971z"/><path style="fill:#fedaab" d="M402.942 402.624s-14.884 18.156-36.101 18.156-36.101-18.156-36.101-18.156v-22.907c10.451 5.489 22.59 8.551 36.101 8.551 13.512 0 25.652-3.061 36.101-8.551v22.907z"/><path style="fill:#4cbd91" d="M504.069 485.701v18.051h-274.46v-18.051s.316-20.796 26.496-40.535c9.923-7.495 23.434-14.779 42.119-20.796 0 0 24.595-12.879 32.512-21.745 0 0 14.884 18.156 36.101 18.156 21.218 0 36.102-18.156 36.102-18.156 7.917 8.867 32.512 21.745 32.512 21.745 68.407 21.64 68.618 61.331 68.618 61.331z"/><path style="fill:#4cbd91" d="M256.106 445.166c-26.179 19.74-26.496 40.535-26.496 40.535v18.051H7.931v-18.051s.633-39.48 68.615-61.331c0 0 24.595-12.879 32.512-21.745 0 0 14.884 18.156 36.101 18.156s36.101-18.156 36.101-18.156c7.917 8.867 32.512 21.745 32.512 21.745 18.684 5.911 32.302 13.195 42.224 20.584l.11.212z"/><path style="fill:#a67c52" d="M223.17 242.805c1.794 11.084 1.478 19.001 1.478 19.001-50.564 0-97.538-28.818-97.538-28.818-32.512 32.408-61.437 32.408-61.437 32.408v-3.589s-3.695-90.255 79.488-90.255c17.312 0 30.824 3.906 41.38 10.134 13.828 8.023 22.696 20.057 28.29 32.302 4.645 10.132 7.072 20.371 8.339 28.817z"/><path style="fill:#4cbd91" d="M246.288 294.319c0-9.923-9.712-14.462-21.64-14.462v-18.051s.316-7.917-1.478-19.001c5.489 5.172 17.523 14.567 32.83 14.567 15.201 0 27.235-9.29 32.724-14.567-1.689 11.084-1.373 19.001-1.373 19.001v18.051c-11.928 0-21.64 4.54-21.64 14.462 0 9.29 11.506 19.951 22.696 21.429 2.112 15.095 7.389 28.923 15.517 40.324l-.422.212h-95.005l-.422-.212c8.129-11.4 13.406-25.229 15.517-40.324 11.19-1.478 22.696-12.14 22.696-21.429z"/><path style="fill:#fedaab" d="M181.262 379.718c-10.451 5.489-22.59 8.551-36.101 8.551s-25.652-3.061-36.101-8.551c-23.224-12.034-38.529-35.785-42.33-63.971-11.19-1.478-22.696-12.14-22.696-21.429 0-9.923 9.712-14.462 21.64-14.462v-14.462s28.923 0 61.437-32.408c0 0 46.975 28.818 97.538 28.818v18.051c11.928 0 21.64 4.54 21.64 14.462 0 9.29-11.506 19.951-22.696 21.429-2.112 15.095-7.389 28.923-15.517 40.324-6.968 9.924-16.047 18.053-26.814 23.648zM256 257.372c-15.307 0-27.34-9.395-32.83-14.567-1.267-8.445-3.695-18.684-8.339-28.818l.528-.211c11.506 7.072 25.229 11.084 40.641 11.084 15.834 0 29.768-4.222 41.486-11.612-4.962 10.345-7.389 20.902-8.762 29.557-5.489 5.278-17.523 14.567-32.724 14.567z"/><path style="fill:#fedaab" d="M335.488 116.554c11.928 0 21.64 4.434 21.64 14.462 0 9.29-11.506 19.845-22.696 21.324-1.478 10.557-4.434 20.373-8.867 29.241-13.723 7.917-22.485 19.635-28.08 31.669-11.718 7.389-25.652 11.612-41.486 11.612-15.412 0-29.135-4.011-40.641-11.084l-.528.211c-5.595-12.245-14.462-24.279-28.29-32.302a29.175 29.175 0 0 1-2.322-4.856c-3.167-7.6-5.489-15.834-6.65-24.491-11.19-1.478-22.696-12.034-22.696-21.324 0-10.028 9.712-14.462 21.64-14.462v-14.462s28.923 0 61.437-32.512c0 0 46.975 28.923 97.538 28.923v18.051h.001z"/><path style="fill:#a67c52" d="M237.949 69.578c-32.512 32.512-61.437 32.512-61.437 32.512v-3.589S172.817 8.246 256 8.246c83.077 0 79.488 90.255 79.488 90.255-50.565.001-97.539-28.923-97.539-28.923z"/><path style="fill:#231f20" d="M438.528 417.026c-8.114-4.295-21.347-12.135-27.656-17.715v-14.937c21.554-12.853 36.354-35.074 41.39-62.142 12.968-4.293 23.636-16.359 23.636-27.914 0-11.479-8.265-19.53-21.64-21.766v-10.608c.115-3.557.907-46.49-26.17-74.665-15.089-15.7-35.695-23.661-61.249-23.661-9.834 0-18.989 1.205-27.386 3.589a107.751 107.751 0 0 0 1.94-8.346c13.879-4.474 23.666-17.354 23.666-27.847 0-11.479-8.265-19.53-21.641-21.766V98.64c.115-3.566.904-46.491-26.169-74.663C302.161 8.278 281.554.316 256 .316c-25.602 0-46.236 7.972-61.329 23.695-27.035 28.164-26.21 71.038-26.089 74.634v10.605c-13.375 2.235-21.64 10.287-21.64 21.766 0 10.49 9.78 23.363 23.649 27.843.53 2.799 1.18 5.58 1.939 8.338-8.369-2.378-17.517-3.576-27.369-3.576-25.602 0-46.237 7.972-61.329 23.695-27.037 28.166-26.21 71.043-26.089 74.635v10.604c-13.375 2.235-21.64 10.287-21.64 21.766 0 11.555 10.669 23.621 23.636 27.914 5.039 27.082 19.849 49.31 41.39 62.143v14.933c-6.313 5.584-19.56 13.432-27.673 17.724C1.55 440.407.031 483.735.001 485.574L0 511.683h511.999v-26.024c-.01-1.851-1.072-45.46-73.471-68.633zm-182.345 18.352c-10.934-7.325-24.134-13.487-39.333-18.353-8.115-4.294-21.348-12.135-27.657-17.717v-14.94c8.725-5.214 16.34-11.98 22.713-20.156h88.19c6.392 8.195 14.007 14.957 22.711 20.156v14.939c-6.314 5.584-19.561 13.433-27.674 17.726-15.095 4.917-28.163 11.077-38.95 18.345zm-139.194-43.661c8.806 2.979 18.238 4.483 28.172 4.483 9.937 0 19.37-1.505 28.171-4.48v7.787c-4.109 4.093-14.873 13.344-28.171 13.344-13.35 0-24.073-9.239-28.172-13.337v-7.797zm115.589-119.164v-10.618c.012-.382.031-1.319.014-2.688 6.519 3.418 14.451 6.055 23.407 6.055 9.012 0 16.975-2.715 23.404-6.093a68.717 68.717 0 0 0 .017 2.727v10.616c-13.375 2.235-21.641 10.287-21.641 21.766 0 11.563 10.685 23.638 23.665 27.923 1.771 9.278 4.711 18.086 8.677 26.111h-68.248c3.972-8.033 6.91-16.838 8.681-26.111 12.979-4.285 23.664-16.36 23.664-27.923.001-11.478-8.265-19.529-21.64-21.765zm48.799-33.78c-4.783 4.147-14.098 10.669-25.377 10.669-10.938 0-20.088-6.071-25.463-10.681a125.198 125.198 0 0 0-2.216-10.287c8.674 2.863 17.926 4.317 27.68 4.317 9.71 0 18.933-1.447 27.594-4.297-.853 3.276-1.584 6.707-2.218 10.279zm57.292 152.944c8.808 2.979 18.238 4.483 28.172 4.483 9.938 0 19.374-1.506 28.172-4.48v7.787c-4.11 4.093-14.874 13.344-28.172 13.344-13.349 0-24.072-9.238-28.172-13.336v-7.798zm121.367-97.398c0 1.615-1.217 4.641-4.647 7.86-3.288 3.085-7.458 5.219-11.156 5.706l-6.012.794-.81 6.01c-3.522 26.124-17.417 47.26-38.158 58.009-9.654 5.069-20.558 7.641-32.414 7.641s-22.761-2.571-32.446-7.657c-9.526-4.95-17.593-12.071-24.012-21.213-7.301-10.24-12.183-22.972-14.121-36.818l-.835-5.974-5.98-.79c-3.698-.489-7.869-2.621-11.156-5.706-3.43-3.219-4.649-6.246-4.649-7.86 0-6.216 11.42-6.531 13.71-6.531h7.931v-15.36c10.936-2.006 31.855-8.509 54.72-29.615 13.195 7.198 48.799 24.574 88.398 26.708l-.004 18.267h7.931c2.29-.003 13.71.312 13.71 6.529zm-43.45-96.115c16.708 17.33 20.656 42.694 21.565 55.406-44.512-2.795-84.794-27.125-85.215-27.383l-5.323-3.265-4.423 4.409c-19.644 19.581-37.818 26.42-47.832 28.81.113-2.517 1.387-13.218 1.387-13.218 1.684-10.101 4.264-18.722 7.932-26.371 5.82-12.519 14.182-21.987 24.867-28.152 10.248-5.944 22.797-8.958 37.296-8.958 21.032 0 37.769 6.299 49.746 18.722zM206.179 34.928c11.981-12.442 28.743-18.75 49.821-18.75 21.034 0 37.771 6.299 49.748 18.722 16.707 17.33 20.656 42.693 21.564 55.405-44.505-2.805-84.782-27.222-85.204-27.481l-5.335-3.284-4.431 4.431c-19.635 19.635-37.8 26.5-47.814 28.9.541-11.548 3.757-39.361 21.651-57.943zm-43.376 96.087c0-6.06 10.493-6.531 13.709-6.531h7.931V109.12c10.937-2.013 31.859-8.537 54.722-29.706 13.207 7.229 48.805 24.661 88.397 26.801l-.004 18.269h7.931c3.216 0 13.71.471 13.71 6.531 0 4.756-7.964 12.425-15.804 13.46l-5.979.79-.836 5.974c-1.253 8.951-3.668 17.271-7.159 24.788-11.883 7.419-21.31 18.072-28.047 31.652-10.48 6.136-22.367 9.25-35.373 9.25-13.063 0-24.965-3.125-35.408-9.272-6.821-13.649-16.273-24.275-28.105-31.638a23.446 23.446 0 0 1-.842-1.973l-.106-.266c-3.026-7.264-5.083-14.832-6.11-22.494l-.807-6.014-6.015-.794c-7.842-1.038-15.805-8.706-15.805-13.463zm-67.529 67.284c11.985-12.486 28.77-18.817 49.886-18.817 14.625 0 27.19 3.039 37.4 9.063 10.769 6.247 19.199 15.916 25.061 28.746 3.554 7.753 6.095 16.471 7.589 25.995 0 0 1.101 8.253 1.255 10.324-44.509-2.797-84.787-27.125-85.209-27.383l-5.323-3.265-4.423 4.409c-19.649 19.584-37.825 26.424-47.838 28.812.515-11.499 3.671-39.203 21.602-57.884zM74.589 314.688l-.81-6.01-6.012-.794c-3.698-.489-7.867-2.621-11.155-5.706-3.43-3.219-4.648-6.245-4.648-7.86 0-6.216 11.419-6.531 13.709-6.531h7.931v-15.361c10.936-2.006 31.855-8.509 54.72-29.615 13.195 7.198 48.798 24.574 88.397 26.708l-.004 18.268h7.931c2.289 0 13.709.315 13.709 6.531 0 1.615-1.217 4.641-4.648 7.86-3.288 3.085-7.458 5.217-11.155 5.706l-5.981.79-.835 5.974c-1.937 13.846-6.82 26.578-14.154 36.866-6.386 9.095-14.452 16.216-24.009 21.182-9.652 5.069-20.558 7.641-32.414 7.641-11.855 0-22.762-2.571-32.453-7.661-20.703-10.728-34.597-31.864-38.119-57.988zm-58.73 171.284v-.041l.001-.026-.001.067zm.003 9.849v-9.962c.123-2.196 2.969-34.607 63.111-53.939l.648-.208.604-.315c2.151-1.126 18.034-9.54 28.549-17.839 7.044 6.237 19.984 15.154 36.387 15.154s29.343-8.918 36.387-15.154c10.514 8.298 26.398 16.713 28.549 17.839l.62.325.667.21c12.071 3.82 22.678 8.477 31.665 13.892-7.687 7.275-13.579 15.382-17.275 23.836-3.879 8.872-4.084 15.225-4.094 15.921v10.241H15.862v-.001zm221.675-9.851v-.044l.001-.027-.001.071zm258.601 9.851H237.54v-9.963c.077-1.363 1.462-17.864 23.346-34.364 10.363-7.828 23.743-14.414 39.769-19.574l.646-.208.602-.315c2.15-1.125 18.034-9.54 28.548-17.838 7.044 6.237 19.983 15.154 36.387 15.154 16.403 0 29.342-8.918 36.387-15.154 10.514 8.299 26.398 16.713 28.549 17.839l.62.325.667.212c60.739 19.215 62.997 51.945 63.075 53.872v10.016h.002z"/></svg>