<?xml version="1.0" encoding="iso-8859-1"?>
<!-- Generator: Adobe Illustrator 19.0.0, SVG Export Plug-In . SVG Version: 6.00 Build 0)  -->
<svg version="1.1" id="Layer_1" xmlns="http://www.w3.org/2000/svg" xmlns:xlink="http://www.w3.org/1999/xlink" x="0px" y="0px"
	 viewBox="0 0 512 512" style="enable-background:new 0 0 512 512;" xml:space="preserve">
<polygon style="fill:#FFFFFF;" points="452.43,116.464 452.43,501.551 59.549,501.551 59.549,10.449 346.394,10.449 
	346.394,116.464 "/>
<rect x="113.81" y="168.458" style="fill:#10BAFC;" width="284.359" height="276.459"/>
<path style="fill:#FFD41D;" d="M307.778,233.911c0-17.416-14.137-31.526-31.583-31.526c-17.438,0-31.578,14.109-31.578,31.526
	c0,17.415,14.139,31.525,31.578,31.525C293.64,265.435,307.778,251.326,307.778,233.911L307.778,233.911z"/>
<g>
	<path style="fill:#92E03F;" d="M398.096,357.383v86.698H294.61l-54.245-83.946l93.734-73.684L398.096,357.383z"/>
	<path style="fill:#92E03F;" d="M240.365,360.136l54.245,83.946H113.883v-70.936l75.474-91.948L240.365,360.136z"/>
</g>
<path style="fill:#D6E3E9;" d="M452.43,116.464H346.394V10.449L452.43,116.464z"/>
<path d="M103.886,165.192c-0.338,1.027-0.527,2.121-0.527,3.261v276.456c0,5.771,4.678,10.449,10.449,10.449H398.17
	c5.771,0,10.449-4.678,10.449-10.449V168.453c0-1.14-0.189-2.234-0.527-3.261c-1.301-4.289-5.283-7.412-9.998-7.412H113.882
	C109.169,157.78,105.188,160.903,103.886,165.192z M387.647,178.902v151.302l-45.79-50.752c-3.681-4.08-9.894-4.612-14.216-1.215
	l-84.721,66.599l-44.786-69.309c-0.227-0.35-0.472-0.684-0.735-1.001c-1.84-2.218-4.533-3.594-7.448-3.76
	c-0.199-0.011-0.396-0.017-0.595-0.017c-0.12,0-0.239,0.016-0.359,0.02c-0.172,0.006-0.344,0.015-0.515,0.028
	c-0.233,0.02-0.464,0.049-0.694,0.085c-0.162,0.025-0.323,0.049-0.483,0.082c-0.234,0.047-0.465,0.107-0.695,0.169
	c-0.152,0.042-0.304,0.08-0.453,0.129c-0.231,0.074-0.457,0.162-0.682,0.253c-0.142,0.057-0.285,0.11-0.424,0.172
	c-0.225,0.101-0.442,0.218-0.659,0.335c-0.132,0.071-0.265,0.136-0.394,0.213c-0.217,0.131-0.426,0.277-0.634,0.423
	c-0.117,0.083-0.238,0.157-0.352,0.245c-0.219,0.168-0.427,0.354-0.634,0.54c-0.09,0.082-0.187,0.155-0.275,0.239
	c-0.288,0.279-0.564,0.574-0.821,0.887l-56.949,69.379V178.902H387.647z M387.647,433.633h-87.347l-45.988-71.169l78.57-61.764
	l54.766,60.7v72.233H387.647z M275.417,433.633H124.332v-56.747l64.019-77.992l43.238,66.914l24.082,37.267L275.417,433.633z"/>
<path d="M276.196,275.884c23.177,0,42.032-18.829,42.032-41.974s-18.855-41.975-42.032-41.975c-23.174,0-42.027,18.83-42.027,41.975
	S253.022,275.884,276.196,275.884z M276.196,212.834c11.653,0,21.134,9.455,21.134,21.077s-9.48,21.076-21.134,21.076
	c-11.651,0-21.129-9.454-21.129-21.076C255.067,222.29,264.545,212.834,276.196,212.834z"/>
<path d="M462.9,116.464c0-3.087-1.339-5.86-3.466-7.773L353.785,3.062c-0.331-0.331-0.691-0.631-1.064-0.915
	c-0.081-0.063-0.163-0.124-0.246-0.184c-0.373-0.267-0.76-0.516-1.166-0.734c-0.027-0.015-0.055-0.025-0.082-0.04
	c-0.385-0.202-0.786-0.374-1.196-0.527c-0.083-0.03-0.163-0.062-0.246-0.09c-0.437-0.149-0.882-0.278-1.343-0.37
	c-0.019-0.004-0.038-0.005-0.056-0.008c-0.417-0.08-0.844-0.13-1.277-0.159c-0.123-0.008-0.247-0.015-0.37-0.019
	C346.623,0.014,346.511,0,346.394,0H59.549C53.778,0,49.1,4.678,49.1,10.449v491.102c0,5.771,4.678,10.449,10.449,10.449H452.43
	c5.771,0,10.449-4.678,10.449-10.449V116.878C462.885,116.74,462.9,116.604,462.9,116.464z M427.2,106.015h-70.357V35.672
	L427.2,106.015z M441.981,491.102H69.998V20.898h265.947v95.566c0,5.771,4.678,10.449,10.449,10.449h95.586v364.189H441.981z"/>
<g>
</g>
<g>
</g>
<g>
</g>
<g>
</g>
<g>
</g>
<g>
</g>
<g>
</g>
<g>
</g>
<g>
</g>
<g>
</g>
<g>
</g>
<g>
</g>
<g>
</g>
<g>
</g>
<g>
</g>
</svg>
