<svg xmlns="http://www.w3.org/2000/svg" viewBox="0 0 512 512" style="enable-background:new 0 0 512 512" xml:space="preserve"><path style="fill:#fff" d="M452.43 116.464v385.087H59.549V10.449h286.845v106.015z"/><path style="fill:#10bafc" d="M113.81 168.458h284.359v276.459H113.81z"/><path style="fill:#ffd41d" d="M307.778 233.911c0-17.416-14.137-31.526-31.583-31.526-17.438 0-31.578 14.109-31.578 31.526 0 17.415 14.139 31.525 31.578 31.525 17.445-.001 31.583-14.11 31.583-31.525z"/><path style="fill:#92e03f" d="M398.096 357.383v86.698H294.61l-54.245-83.946 93.734-73.684 63.997 70.932zM240.365 360.136l54.245 83.946H113.883v-70.936l75.474-91.948 51.008 78.938z"/><path style="fill:#d6e3e9" d="M452.43 116.464H346.394V10.449L452.43 116.464z"/><path d="M103.886 165.192a10.406 10.406 0 0 0-.527 3.261v276.456c0 5.771 4.678 10.449 10.449 10.449H398.17c5.771 0 10.449-4.678 10.449-10.449V168.453c0-1.14-.189-2.234-.527-3.261-1.301-4.289-5.283-7.412-9.998-7.412H113.882c-4.713 0-8.694 3.123-9.996 7.412zm283.761 13.71v151.302l-45.79-50.752a10.45 10.45 0 0 0-14.216-1.215l-84.721 66.599-44.786-69.309a10.452 10.452 0 0 0-8.778-4.778c-.12 0-.239.016-.359.02a12.59 12.59 0 0 0-.515.028c-.233.02-.464.049-.694.085-.162.025-.323.049-.483.082a10.99 10.99 0 0 0-.695.169c-.152.042-.304.08-.453.129a9.788 9.788 0 0 0-.682.253c-.142.057-.285.11-.424.172-.225.101-.442.218-.659.335-.132.071-.265.136-.394.213-.217.131-.426.277-.634.423-.117.083-.238.157-.352.245-.219.168-.427.354-.634.54-.09.082-.187.155-.275.239a10.63 10.63 0 0 0-.821.887l-56.949 69.379V178.902h263.314zm0 254.731H300.3l-45.988-71.169 78.57-61.764 54.766 60.7v72.233h-.001zm-112.23 0H124.332v-56.747l64.019-77.992 43.238 66.914 24.082 37.267 19.746 30.558z"/><path d="M276.196 275.884c23.177 0 42.032-18.829 42.032-41.974s-18.855-41.975-42.032-41.975c-23.174 0-42.027 18.83-42.027 41.975s18.853 41.974 42.027 41.974zm0-63.05c11.653 0 21.134 9.455 21.134 21.077s-9.48 21.076-21.134 21.076c-11.651 0-21.129-9.454-21.129-21.076 0-11.621 9.478-21.077 21.129-21.077z"/><path d="M462.9 116.464c0-3.087-1.339-5.86-3.466-7.773L353.785 3.062a10.428 10.428 0 0 0-1.064-.915 10.727 10.727 0 0 0-1.412-.918c-.027-.015-.055-.025-.082-.04a10.378 10.378 0 0 0-1.196-.527c-.083-.03-.163-.062-.246-.09a10.559 10.559 0 0 0-1.343-.37c-.019-.004-.038-.005-.056-.008a10.507 10.507 0 0 0-1.647-.178c-.116-.002-.228-.016-.345-.016H59.549C53.778 0 49.1 4.678 49.1 10.449v491.102c0 5.771 4.678 10.449 10.449 10.449H452.43c5.771 0 10.449-4.678 10.449-10.449V116.878c.006-.138.021-.274.021-.414zm-35.7-10.449h-70.357V35.672l70.357 70.343zm14.781 385.087H69.998V20.898h265.947v95.566c0 5.771 4.678 10.449 10.449 10.449h95.586v364.189h.001z"/></svg>