<?xml version="1.0" encoding="iso-8859-1"?>
<!-- Generator: Adobe Illustrator 19.0.0, SVG Export Plug-In . SVG Version: 6.00 Build 0)  -->
<svg version="1.1" id="Layer_1" xmlns="http://www.w3.org/2000/svg" xmlns:xlink="http://www.w3.org/1999/xlink" x="0px" y="0px"
	 viewBox="0 0 512 512" style="enable-background:new 0 0 512 512;" xml:space="preserve">
<path style="fill:#BFDCFF;" d="M0,256c0,141.384,114.615,256,256,256l22.261-256L256,0C114.615,0,0,114.616,0,256z"/>
<path style="fill:#8BC0FF;" d="M256,0v512c141.385,0,256-114.616,256-256S397.385,0,256,0z"/>
<path style="fill:#3897FF;" d="M44.522,256c0,116.61,94.868,211.478,211.478,211.478L278.261,256L256,44.522
	C139.39,44.522,44.522,139.39,44.522,256z"/>
<path style="fill:#2D79CC;" d="M256,44.522v422.957c116.61,0,211.478-94.868,211.478-211.478S372.61,44.522,256,44.522z"/>
<path style="fill:#FFFFFF;" d="M222.609,144.696c0,18.442,14.949,33.391,33.391,33.391l11.13-33.391L256,111.304
	C237.558,111.304,222.609,126.254,222.609,144.696z"/>
<path style="fill:#BFDCFF;" d="M256,111.304v66.783c18.442,0,33.391-14.949,33.391-33.391S274.442,111.304,256,111.304z"/>
<polygon style="fill:#FFFFFF;" points="222.609,222.609 222.609,400.696 256,400.696 267.13,311.652 256,222.609 "/>
<rect x="256" y="222.609" style="fill:#BFDCFF;" width="33.391" height="178.087"/>
<g>
</g>
<g>
</g>
<g>
</g>
<g>
</g>
<g>
</g>
<g>
</g>
<g>
</g>
<g>
</g>
<g>
</g>
<g>
</g>
<g>
</g>
<g>
</g>
<g>
</g>
<g>
</g>
<g>
</g>
</svg>
