<?xml version="1.0" standalone="no"?>
<!DOCTYPE svg PUBLIC "-//W3C//DTD SVG 20010904//EN"
 "http://www.w3.org/TR/2001/REC-SVG-20010904/DTD/svg10.dtd">
<svg version="1.0" xmlns="http://www.w3.org/2000/svg"
 width="200.000000pt" height="200.000000pt" viewBox="0 0 200.000000 200.000000"
 preserveAspectRatio="xMidYMid meet">

<g transform="translate(0.000000,200.000000) scale(0.100000,-0.100000)"
fill="#000000" stroke="none">
<path d="M900 1890 c-153 -19 -309 -81 -430 -170 -232 -172 -362 -430 -362
-720 -1 -344 187 -648 497 -803 248 -124 543 -124 790 0 189 95 323 233 414
424 176 369 77 802 -244 1072 -171 144 -442 224 -665 197z m305 -80 c227 -57
428 -215 534 -419 139 -269 133 -560 -15 -816 -55 -94 -199 -242 -286 -294
-144 -84 -263 -116 -433 -115 -158 0 -231 17 -370 84 -220 107 -368 283 -441
525 -23 79 -27 107 -27 225 0 118 4 146 27 225 98 326 358 553 691 605 84 13
226 4 320 -20z"/>
</g>
</svg>
