<svg xmlns="http://www.w3.org/2000/svg" viewBox="0 0 512 512" style="enable-background:new 0 0 512 512" xml:space="preserve"><path style="fill:#b0dacc" d="M201.463 470.752c0-47.839-39.141-86.982-86.982-86.982-47.839 0-86.982 39.141-86.982 86.982 0 14.917 12.093 27.01 27.01 27.01h119.942c14.92 0 27.012-12.093 27.012-27.01z"/><path style="fill:#211e48" d="M174.453 512H54.511c-22.744 0-41.248-18.504-41.248-41.248 0-55.813 45.407-101.219 101.219-101.219 55.813 0 101.22 45.407 101.22 101.219-.001 22.744-18.505 41.248-41.249 41.248zm-59.97-113.992c-40.111 0-72.743 32.631-72.743 72.742 0 7.042 5.729 12.772 12.772 12.772h119.942c7.042 0 12.772-5.729 12.772-12.772-.001-40.109-32.632-72.742-72.743-72.742z"/><path style="fill:#211e48" d="M114.481 396.958c-42.8 0-77.62-34.82-77.62-77.62s34.82-77.62 77.62-77.62 77.62 34.82 77.62 77.62-34.819 77.62-77.62 77.62zm0-126.762c-27.097 0-49.143 22.045-49.143 49.143s22.045 49.143 49.143 49.143 49.143-22.045 49.143-49.143-22.044-49.143-49.143-49.143z"/><path style="fill:#b0dacc" d="M484.499 470.752c0-47.839-39.141-86.982-86.982-86.982-47.839 0-86.982 39.141-86.982 86.982 0 14.917 12.093 27.01 27.01 27.01h119.942c14.919 0 27.012-12.093 27.012-27.01z"/><path style="fill:#211e48" d="M457.489 512H337.547c-22.744 0-41.248-18.504-41.248-41.248 0-55.813 45.407-101.219 101.219-101.219 55.813 0 101.22 45.407 101.22 101.219-.001 22.744-18.505 41.248-41.249 41.248zm-59.972-113.992c-40.111 0-72.743 32.631-72.743 72.742 0 7.042 5.729 12.772 12.772 12.772h119.942c7.042 0 12.772-5.729 12.772-12.772 0-40.109-32.632-72.742-72.743-72.742z"/><path style="fill:#211e48" d="M397.517 396.958c-42.8 0-77.62-34.82-77.62-77.62s34.82-77.62 77.62-77.62 77.62 34.82 77.62 77.62-34.82 77.62-77.62 77.62zm0-126.762c-27.097 0-49.143 22.045-49.143 49.143s22.045 49.143 49.143 49.143 49.143-22.045 49.143-49.143-22.045-49.143-49.143-49.143zM372.162 225.802c-5.052 0-9.981-1.934-13.778-5.587l-47.657-45.857c-5.667-5.453-5.841-14.466-.387-20.133 5.453-5.667 14.466-5.841 20.133-.387l35.234 33.904 2.917-25.276c.83-7.185 6.913-12.607 14.144-12.607h31.414V28.477H97.818V149.86h31.414a14.238 14.238 0 0 1 14.144 12.607l2.917 25.276 35.235-33.904c5.667-5.452 14.68-5.278 20.133.387 5.452 5.665 5.28 14.68-.387 20.133l-47.657 45.857c-5.502 5.292-13.381 6.978-20.567 4.397-7.185-2.581-12.192-8.896-13.066-16.479l-3.44-29.796H95.643c-14.503 0-26.301-11.798-26.301-26.3V26.301C69.342 11.798 81.14 0 95.641 0h320.716c14.503 0 26.301 11.798 26.301 26.301v125.735c0 14.503-11.798 26.301-26.301 26.301h-20.902l-3.44 29.796c-.876 7.583-5.882 13.898-13.066 16.479-2.225.8-4.519 1.19-6.787 1.19z"/><path style="fill:#211e48" d="M264.008 178.336h-16.015c-7.864 0-14.238-6.374-14.238-14.238s6.374-14.238 14.238-14.238h16.015c7.864 0 14.238 6.374 14.238 14.238 0 7.863-6.375 14.238-14.238 14.238z"/></svg>