<svg xmlns="http://www.w3.org/2000/svg" viewBox="0 0 512 512" style="enable-background:new 0 0 512 512" xml:space="preserve"><path style="fill:#d5c9b3" d="M323.693 504.193H99.518V7.807h320.25v392.305z"/><path style="fill:#cbbba0" d="M320.049 504.193h-32.025V7.807h128.1v392.305z"/><path style="fill:#36a9e1" d="M320.049 400.112v104.081l96.075-104.081z"/><path style="fill:#5ebae7" d="m352.074 469.5-32.025 34.693V400.112h32.025z"/><path style="fill:#1d1d1b" d="M88.068 0v512h235.399l100.464-108.836V0H88.068zm15.614 15.613h304.636v376.692h-96.075v104.081H103.682V15.613zm294.612 392.306-70.438 76.308v-76.308h70.438z"/><path style="fill:#fff" d="M143.913 56.043h224.175v15.613H143.913z"/><path style="fill:#1d1d1b" d="M215.973 96.074h80.062v15.613h-80.062zM191.95 136.106h176.139v15.613H191.95z"/><path style="fill:#fff" d="M143.913 136.106h32.025v15.613h-32.025z"/><path style="fill:#1d1d1b" d="M191.95 176.139h176.139v15.613H191.95z"/><path style="fill:#fff" d="M143.913 176.139h32.025v15.613h-32.025z"/><path style="fill:#1d1d1b" d="M191.95 216.171h176.139v15.613H191.95z"/><path style="fill:#fff" d="M143.913 216.171h32.025v15.613h-32.025z"/><path style="fill:#1d1d1b" d="M191.95 256.203h176.139v15.613H191.95z"/><path style="fill:#fff" d="M143.913 256.203h32.025v15.613h-32.025z"/><path style="fill:#1d1d1b" d="M191.95 296.236h176.139v15.613H191.95z"/><path style="fill:#fff" d="M143.913 296.236h32.025v15.613h-32.025z"/><path style="fill:#1d1d1b" d="M191.95 336.258h176.139v15.613H191.95z"/><path style="fill:#fff" d="M143.913 336.258h32.025v15.613h-32.025zM143.913 440.346h16.013v15.613h-16.013zM175.941 440.346h16.013v15.613h-16.013zM207.958 440.346h16.012v15.613h-16.012z"/></svg>