<svg xmlns="http://www.w3.org/2000/svg" viewBox="0 0 511.999 511.999" style="enable-background:new 0 0 511.999 511.999" xml:space="preserve"><path style="fill:#29abe2" d="M18.757 501.431c0-131.026 106.217-237.243 237.243-237.243s237.243 106.217 237.243 237.243H18.757z"/><circle style="fill:#29abe2" cx="255.999" cy="137.378" r="126.811"/><path d="M431.227 326.204c-32.299-32.299-71.945-54.578-115.168-65.29 45.736-22.325 77.319-69.31 77.319-123.535C393.378 61.628 331.75 0 255.999 0S118.621 61.628 118.621 137.379c0 54.227 31.583 101.21 77.319 123.535-43.224 10.711-82.869 32.991-115.168 65.29C33.966 373.009 8.189 435.239 8.189 501.431c0 5.836 4.731 10.568 10.568 10.568h474.485c5.836 0 10.568-4.731 10.568-10.568 0-66.192-25.777-128.422-72.583-175.227zM139.756 137.378c0-64.097 52.147-116.244 116.244-116.244s116.244 52.147 116.244 116.244S320.097 253.622 256 253.622s-116.244-52.148-116.244-116.244zM29.568 490.864C35.103 370.758 134.551 274.757 256 274.757s220.897 96.001 226.432 216.107H29.568z"/><path d="M65.399 466.033c-.818 0-1.649-.095-2.478-.295-5.675-1.364-9.17-7.069-7.806-12.745 12.881-53.607 47.534-100.641 95.072-129.04 5.009-2.993 11.498-1.359 14.491 3.653 2.993 5.01 1.358 11.499-3.653 14.491-42.688 25.502-73.8 67.721-85.362 115.834-1.162 4.845-5.492 8.102-10.264 8.102zM210.55 321.267c-4.785 0-9.12-3.272-10.273-8.13-1.347-5.679 2.163-11.374 7.841-12.722 15.598-3.702 31.707-5.58 47.881-5.58 5.836 0 10.568 4.731 10.568 10.568s-4.731 10.568-10.568 10.568c-14.532 0-28.999 1.684-43.001 5.008-.819.194-1.64.288-2.448.288z"/></svg>