<?xml version="1.0" encoding="iso-8859-1"?>
<!-- Generator: Adobe Illustrator 19.0.0, SVG Export Plug-In . SVG Version: 6.00 Build 0)  -->
<svg version="1.1" id="Layer_1" xmlns="http://www.w3.org/2000/svg" xmlns:xlink="http://www.w3.org/1999/xlink" x="0px" y="0px"
	 viewBox="0 0 511.999 511.999" style="enable-background:new 0 0 511.999 511.999;" xml:space="preserve">
<g>
	<path style="fill:#29ABE2;" d="M18.757,501.431c0-131.026,106.217-237.243,237.243-237.243s237.243,106.217,237.243,237.243H18.757
		z"/>
	<circle style="fill:#29ABE2;" cx="255.999" cy="137.378" r="126.811"/>
</g>
<path d="M431.227,326.204c-32.299-32.299-71.945-54.578-115.168-65.29c45.736-22.325,77.319-69.31,77.319-123.535
	C393.378,61.628,331.75,0,255.999,0S118.621,61.628,118.621,137.379c0,54.227,31.583,101.21,77.319,123.535
	c-43.224,10.711-82.869,32.991-115.168,65.29C33.966,373.009,8.189,435.239,8.189,501.431c0,5.836,4.731,10.568,10.568,10.568
	h474.485c5.836,0,10.568-4.731,10.568-10.568C503.81,435.239,478.033,373.009,431.227,326.204z M139.756,137.378
	c0-64.097,52.147-116.244,116.244-116.244s116.244,52.147,116.244,116.244s-52.147,116.244-116.244,116.244
	S139.756,201.474,139.756,137.378z M29.568,490.864c5.535-120.106,104.983-216.107,226.432-216.107s220.897,96.001,226.432,216.107
	H29.568z"/>
<path d="M65.399,466.033c-0.818,0-1.649-0.095-2.478-0.295c-5.675-1.364-9.17-7.069-7.806-12.745
	c12.881-53.607,47.534-100.641,95.072-129.04c5.009-2.993,11.498-1.359,14.491,3.653c2.993,5.01,1.358,11.499-3.653,14.491
	c-42.688,25.502-73.8,67.721-85.362,115.834C74.501,462.776,70.171,466.033,65.399,466.033z"/>
<path d="M210.55,321.267c-4.785,0-9.12-3.272-10.273-8.13c-1.347-5.679,2.163-11.374,7.841-12.722
	c15.598-3.702,31.707-5.58,47.881-5.58c5.836,0,10.568,4.731,10.568,10.568s-4.731,10.568-10.568,10.568
	c-14.532,0-28.999,1.684-43.001,5.008C212.179,321.173,211.358,321.267,210.55,321.267z"/>
<g>
</g>
<g>
</g>
<g>
</g>
<g>
</g>
<g>
</g>
<g>
</g>
<g>
</g>
<g>
</g>
<g>
</g>
<g>
</g>
<g>
</g>
<g>
</g>
<g>
</g>
<g>
</g>
<g>
</g>
</svg>
