<svg xmlns="http://www.w3.org/2000/svg" viewBox="0 0 503.467 503.467" style="enable-background:new 0 0 503.467 503.467" xml:space="preserve"><path style="fill:#f2edda" d="M460.067 122.733v341.333c0 18.773-15.36 34.133-34.133 34.133h-358.4c-18.773 0-34.133-15.36-34.133-34.133V37.4c0-18.773 15.36-34.133 34.133-34.133H340.6V88.6c0 18.773 15.36 34.133 34.133 34.133h85.334z" transform="translate(5 1)"/><path style="fill:#ffd0a1" d="M460.067 122.733h-85.333c-18.773 0-34.133-15.36-34.133-34.133V3.267l119.466 119.466z" transform="translate(5 1)"/><path style="fill:#80d6fa" d="M246.733 191c61.44 0 110.933 49.493 110.933 110.933s-49.493 110.933-110.933 110.933c-61.44 0-110.933-49.493-110.933-110.933S185.293 191 246.733 191z" transform="translate(5 1)"/><path style="fill:#ecf4f7" d="m280.867 301.933-59.734 34.134V267.8z" transform="translate(5 1)"/><path style="fill:#51565f" d="M430.933 503.467h-358.4c-21.333 0-38.4-17.067-38.4-38.4V38.4C34.133 17.067 51.2 0 72.533 0H345.6c.853 0 2.56.853 3.413.853l85.333 85.333c1.707 1.707 1.707 4.267 0 5.973-1.707 1.707-4.267 1.707-5.973 0l-84.48-84.48H72.533c-16.213 0-29.867 13.653-29.867 29.867v426.667c0 16.213 13.653 29.867 29.867 29.867h358.4c16.213 0 29.867-13.653 29.867-29.867V127.147h-81.067c-21.333 0-38.4-17.067-38.4-38.4V46.08c0-2.56 1.707-4.267 4.267-4.267s4.267 1.707 4.267 4.267v42.667c0 16.213 13.653 29.867 29.867 29.867h85.333c2.56 0 4.267 1.707 4.267 4.267v341.333c-.001 22.186-17.067 39.253-38.401 39.253zm-179.2-85.334c-63.147 0-115.2-52.053-115.2-115.2s52.053-115.2 115.2-115.2 115.2 52.053 115.2 115.2-52.053 115.2-115.2 115.2zm0-221.866c-58.88 0-106.667 47.787-106.667 106.667S192.853 409.6 251.733 409.6 358.4 361.813 358.4 302.933s-47.787-106.666-106.667-106.666zm-25.6 145.066c-.853 0-1.707 0-2.56-.853-1.707-.853-1.707-2.56-1.707-3.413V268.8c0-1.707.853-2.56 1.707-3.413 1.707-.853 2.56-.853 4.267 0l59.733 34.133c1.707.853 2.56 2.56 2.56 3.413s-.853 2.56-2.56 3.413L227.84 340.48c0 .853-.853.853-1.707.853zm4.267-64.853v53.76l46.933-26.453L230.4 276.48z"/></svg>